<svg width="15" height="15" viewBox="0 0 15 15" fill="none" xmlns="http://www.w3.org/2000/svg">
<g clip-path="url(#clip0_749_11967)">
<path d="M13.6227 6.24911C13.9081 7.64962 13.7047 9.10564 13.0465 10.3743C12.3883 11.6431 11.315 12.6478 10.0057 13.2209C8.69638 13.7941 7.23012 13.9011 5.85146 13.524C4.4728 13.147 3.26507 12.3087 2.42968 11.149C1.59428 9.98921 1.18172 8.57814 1.26079 7.15103C1.33987 5.72393 1.90579 4.36707 2.86419 3.30672C3.8226 2.24637 5.11555 1.54663 6.52742 1.32419C7.9393 1.10176 9.38476 1.37006 10.6228 2.08437" stroke="#99A1AF" stroke-width="1.24973" stroke-linecap="round" stroke-linejoin="round"/>
<path d="M5.62378 6.87407L7.49838 8.74867L13.747 2.5" stroke="#99A1AF" stroke-width="1.24973" stroke-linecap="round" stroke-linejoin="round"/>
</g>
<defs>
<clipPath id="clip0_749_11967">
<rect width="14.9968" height="14.9968" fill="white"/>
</clipPath>
</defs>
</svg>
